<svg xmlns="http://www.w3.org/2000/svg" width="1000" height="1000" viewBox="43 14 100 100"><path fill-rule="evenodd" clip-rule="evenodd" fill="none" d="M0 0h192.756v192.756H0V0z"/><path fill-rule="evenodd" clip-rule="evenodd" stroke="#000" stroke-width=".622" stroke-miterlimit="2.613" d="M59.276 25.275V51.75h26.267V25.275H59.276zM59.276 67.843s-2.627 16.841 14.347 26.475c5.165 2.932 11.92 6.702 11.92 6.702V67.843H59.276zM99.373 25.275V51.75h26.266V25.275H99.373zM99.373 68.031v33.313s7.189-3.568 13.512-7.704c6.467-4.232 9.873-9.828 9.873-9.828 5.277-8.204 3.338-15.782 3.338-15.782H99.373v.001z" fill="#000000"/><path d="M114.438 40.411s-.271 2.15.775 3.2c1.043 1.051.879 1.327.879 1.77s-.33 1.106-.33 1.106-.881.995-1.43.995-.77.221-1.1-.111c-.367-.826-1.979-.442-1.979-.442s-.523-.072-.66.267c-.207.513-.551 1.06.77 1.06s.936-.388 1.32 0c.383.387-1.197.319-1.539.663-.469.469-.221 1.216.439 1.216.658 0 2.199-1.327 2.199-1.327 0 1.106 0 1.106.658 1.106.66 0 .881-.885.881-.885l.109-.885.66-.995s.879 1.328 1.43-.11c.549-1.438-.221-1.991-.221-1.991s1.004.318 1.43-.11c.426-.429.438-1.659.438-1.659l-1.539-4.091-3.19 1.223z" fill-rule="evenodd" clip-rule="evenodd" fill="#fff" stroke="#000" stroke-width=".31" stroke-linecap="round" stroke-linejoin="round" stroke-miterlimit="2.613"/><path d="M104.438 32s-.225-1.82-.439-2.322c-.266-.612-1.32-1.659-1.65-1.327-.33.332-.658.995-.658 1.658v.664s0 1.326.549 1.326-.879-.774-.879 0-.439 1.217.109 1.77l.549.553s-.879.442-.439.885.111 1.093.551 1.536c.439.442 1.098.233 1.098.233s-.77.442-.77.995c0 .553.166.608.551.995.385.386 1.758.884 1.758.884s-1.152.83-.439 1.548c.715.719 1.1.664 1.43.332.33-.332 1.209-.664 1.209-.664l.77-.442s.109-.221.109.442c0 .664.387 1.05-.109 1.548-.494.498-.219.774-.549 1.106-.33.332-.881 1.105-.881 1.105l-1.098.995s.109-.995-.77-.995c-.881 0-1.541.11-1.541.553s-.406.381-.109.995c.299.614 1.43.354 1.43.553s-.881.774-.881.774-.988.995-.988 1.769.496 1.382.988.884c.496-.497.441-1.105.441-1.105h.549s.881-.553.881-1.106 0 .111.439.553 0 .442.439.442.99-.775.99-1.327c0-.553.328-1.548.328-1.548v-1.106s-.328 1.548.551 1.548.99-.774.99-.774v-1.879l-.441-1.106.879 1.327.441-.995-.086-.957-.025-.259.551-1.549s-.109.996.439.996c.551 0 .385.277 1.1-.442.99-.995.91-.636 1.402-.636.584 0 2.557-.055 2.557-.055s.879.028.879-.636c0-.663.166.94.881 1.659.713.719 1.152 1.382 1.646 1.88.498.498 1.211.884 1.211.884s.109.222.109.775c0 .552.166.718-.221 1.106-.383.387-.549.884-.549.884s-.439.111-.988.111c-.551 0-.99.552-.99.552l-.33.774s-.439.664.219.664c.662 0 .99-.553.99-.553s-.328-.221-.328.553-.193 1.01.328 1.01c.549 0 .727.315.99.095.361-.301.77-1.105.77-1.105l.33-.885s.107.111.107.885c-.184.774.615.599.441.774-.174.174.771 0 .771 0l-.111-.996.551-.553s-.172-.483-.561-.875c-.389-.391-.59-.844-.32-1.115.27-.271.518-.477.66-.332.463 0 .805-1.069.109-1.77l-.328-.331.328-1.217.33-.553s.43-.922 0-1.105c-.373-.159-.33-.332-.33-.332l-.219.884-.375.507-.506-.838s0-.884-.33-1.216c-.328-.332-.77-1.216-.77-1.216s-.33-.774-.879-.774.77.22 1.32.22c.549 0 1.539-.331 1.539-.884 0-.553.109-1.769.109-1.769l-.77-1.216-.99-.663h-.549l-.111.663-.328-1.105-.551-.664h-.879l.109.774-.77-.774-.33-.773-.988-.221s-.33.221-.33.664v-.442s-.068-1.513.66-1.327c1.277.327 2.061-.25 2.639.332.385.387 1.207 1.105 1.756 1.105.553 0 1.432-.221 1.762-.553s.66-.932.66-1.327c0-.84-.441-1.216-.441-1.216l-.508-.366-.26-.187s.158.834-.111 1.106c-.389.391-.33 0-.99 0s-1.562-.48-2.309-.774c-.746-.294-2.811 0-2.527 0s-1.186.6-1.43 1.216c-.264.664-.33 1.548-.33 1.991s.439.885.881 1.327c.438.442 1.152.607 1.539.995.383.387 1.207.332 1.539.663.328.332 1.428.553 1.428.553s.551 0 .881.332c.328.331.109.774.109.774s.439.332-.551.332-1.428-.442-1.979-.442-1.209-.442-1.758-.442c-.551 0-1.871-.11-2.42-.11h-.549c-.551 0-1.1-1.105-1.1-1.105l-.66-.553.549-.553-.109-2.655.66.333s.549.553.549-.664c0-1.216-.164-.829-.549-1.216s-.551-1.438-.551-1.438-.494-.166-.879.221-.549-.221-.549-.221.109-1.106-.332-1.106c-.439 0-.988-.111-.988.332 0 .442-.111.442-.111.884s-.109.221-.549.221-1.1-.885-1.1-.332c0 .553-.109 1.216-.109 1.216s-.109-.331-.549.111c-.439.442-.439.442-.439 1.105 0 .665-.002.886.549.886.549 0 .77-.553.77-.553s-.385 2.599 0 2.985.385-.332.385.387-.715.719-.715.719-.221 0-.221.885c0 .884-.328.774-.328 1.658s-.057.277.549.884c.605.609.459.447.055.609-.664.265-.934-.276-1.924-.276s-.99-1.548-.99-1.548l-.439-1.548-.219-.664s.664-.167.879-.553c.246-.442.221-1.327.221-1.327l-.33-.774-.439-.112z" fill-rule="evenodd" clip-rule="evenodd" fill="#fff" stroke="#000" stroke-width=".31" stroke-linecap="round" stroke-linejoin="round" stroke-miterlimit="2.613"/><path d="M108.945 32.333s.904 1.359 2.078-.078c0 0 .172 2.255-.447 2.585-.471.25-.996.162-1.322-.167-.313-.312-.309-2.34-.309-2.34" fill="none" stroke="#000" stroke-width=".31" stroke-linecap="round" stroke-linejoin="round" stroke-miterlimit="2.613"/><path d="M108.285 29.679c.199.06 1.209.309 1.209.774s-.111.774-.111.774l-.438-.774s-.861-.833-.66-.774zM111.646 29.681c-.201.059-1.209.309-1.209.773s.111.774.111.774l.439-.774c.001.001.859-.832.659-.773z" fill-rule="evenodd" clip-rule="evenodd" stroke="#000" stroke-width=".31" stroke-linecap="round" stroke-linejoin="round" stroke-miterlimit="2.613"/><path d="M113.012 35.556s0 .868-.658.868c-.66 0-.66-.774-.66 0s-.439-.111-.439.774c0 .884-.66.332-.66.332m-.001-.001l-.66-.332-.109.774m-.001.001c-.441.442.109.442-.441.442-.549 0-.658-.552-.658-.552m0 0l-.152-.996m10.927-6.805s.354.284.883.507c.344.146.764.266 1.205.266.281 0 .219-.331.418-.371.6-.122 1.152-.061 1.152-.061M104.438 32s-.535 2.56-.33 2.765" fill="none" stroke="#000" stroke-width=".31" stroke-linecap="round" stroke-linejoin="round" stroke-miterlimit="2.613"/><path d="M114.199 81.309s-3.141 3.267-2.096 4.316c1.045 1.051.641 2.198.301 2.521-.34.322-1.584 2.284-3.168 2.755-.957 0-.879-.928-2.158-.56-.971.278-.965.627-1.102.966-.207.514.369 1.43 1.25 1.188.746-.205-1.342 2.003.752 1.896 1.332-.066 1.93-2.316 2.199-2.316s0 1.028.66 1.028.713-.86.713-.86l.057-1.061.582-.77s1.311 1.961 1.311.11c0-2.137.764-1 .764-1s.436-.924.863-1.352c.426-.429-.322-1.012-.322-2.839 0-2.008 1.955-4.196 1.955-4.196l-2.561.174z" fill-rule="evenodd" clip-rule="evenodd" fill="#fff" stroke="#000" stroke-width=".31" stroke-linecap="round" stroke-linejoin="round" stroke-miterlimit="2.613"/><path d="M104.438 74.542s-.225-1.821-.439-2.323c-.266-.612-1.32-1.658-1.65-1.327-.33.332-.658.996-.658 1.659v.663s.387.629.549 1.328c.125.538-.449-.434-.879 0-.229.228-.439 1.216.109 1.769l.549.553s-.879.442-.439.884c.439.443.111 1.094.551 1.536s1.098.233 1.098.233-.77.443-.77.995c0 .553.166.608.551.995s1.553.058 1.553.058-.947 1.34-.234 2.059c.715.718 1.1.502 1.43.171.33-.332.826-.574.826-.574l1.152-.626s.109.35.109 1.013c0 .664.387.805-.109 1.303-.494.497-.688.548-1.02.879-.33.331-1.508 1.138-1.508 1.138s.109-1.115-.77-1.115c-.881 0-1.754.114-1.754.557s-.111 1.287 1.109 1.287c.287 0-1.236.856-1.236 1.63 0 .775 1.002 1.136 1.834.301.389-.392.541-1.288.98-1.288s-.012 1.289.84 1.289c.549 0 .822-1.157.822-1.157l.557-2.062s-.24.688.639.688c.881 0 .717-.463.717-.463l-.441-1.105s.447.759.879.324c.434-.436.33-1.208.33-1.208l.307-2.181s.469.816 1.322.558c.527-.158.693.119 1.408-.6.988-.996 2.793-.771 3.891-.815.66-.027.955.404 1.783.986 1.023.719.564 1.019-.045 1.63-.639.643-1.107.043-1.107.043s-.934-.262-1.322.129c-.555.558.113 1.06.113 1.06l.568.142s-.725 1.073-.17 1.63c.467.47 1.152.045 1.492-.257.52-.463-.094-1.768.299-1.373.293.295.332 1.038.475 1.184.465 0 .549-.282 1.146-1.27-.383-2.873 1.535-1.373 1.055-2.966-.133-.448-.943-1.041-.943-1.041s-1.783-.977-1.199-1.562c.191-.193.857.443 1.406.443.551 0 1.771-.021 1.947-1.047.094-.543.109-1.216.109-1.216l-.77-1.216-.99-.664h-.549l-.111.664-.328-1.106-.551-.663h-.879l.109.773-.77-.773-.33-.774-.988-.221s-.33.221-.33.663v-.442s-.068-1.513.66-1.326c1.277.326 2.061-.25 2.639.332.385.387 1.207 1.106 1.756 1.106.553 0 1.432-.222 1.762-.554s.66-.933.66-1.327c0-.84-.441-1.217-.441-1.217l-.508-.365-.26-.187s.158.833-.111 1.106c-.389.39-.33 0-.99 0s-1.562-.481-2.309-.775c-.746-.293-2.811 0-2.527 0s-1.186.601-1.43 1.217c-.264.664-.33 1.547-.33 1.99s.439.885.881 1.328c.438.441 1.152.607 1.539.995.383.386 1.207.332 1.539.663.328.332 1.428.552 1.428.552s.551.001.881.333c.328.332.109.773.109.773s.439.332-.551.332-1.428-.442-1.979-.442-1.209-.443-1.758-.443c-.551 0-1.871-.109-2.42-.109h-.549c-.551 0-1.1-1.107-1.1-1.107s-.457.059-.457-.552.346-.554.346-.554l-.109-2.654.66.333s.549.552.549-.664-.164-.83-.549-1.216c-.385-.388-.551-1.438-.551-1.438s-.494-.166-.879.221-.549-.221-.549-.221.109-1.105-.332-1.105c-.439 0-.988-.111-.988.332s-.111.442-.111.885c0 .442-.109.221-.549.221s-1.1-.885-1.1-.332c0 .553-.109 1.217-.109 1.217s-.109-.332-.549.11-.439.442-.439 1.105-.002.885.549.885c.549 0 .77-.554.77-.554s-.385 2.603 0 2.988c.385.388.385.384.385.384 0 .719-.715.719-.715.719s-.221 0-.221.885c0 .884-.461.784-.328 1.658.215 1.417-.33.773-1.32.773s-.99-1.104-.99-1.104l-.439-1.549-.219-.663s.664-.166.879-.553c.246-.442.221-1.327.221-1.327l-.33-.774-.442-.113z" fill-rule="evenodd" clip-rule="evenodd" fill="#fff" stroke="#000" stroke-width=".31" stroke-linecap="round" stroke-linejoin="round" stroke-miterlimit="2.613"/><path d="M108.945 74.874s.904 1.36 2.078-.078c0 0 .172 2.256-.447 2.586-.471.25-.996.162-1.322-.166-.313-.315-.309-2.342-.309-2.342" fill="none" stroke="#000" stroke-width=".31" stroke-linecap="round" stroke-linejoin="round" stroke-miterlimit="2.613"/><path d="M108.285 72.22c.199.059 1.209.309 1.209.775 0 .465-.111.774-.111.774l-.438-.774s-.861-.833-.66-.775zM111.646 72.222c-.201.06-1.209.308-1.209.774 0 .465.111.774.111.774l.439-.774c.001 0 .859-.833.659-.774z" fill-rule="evenodd" clip-rule="evenodd" stroke="#000" stroke-width=".31" stroke-linecap="round" stroke-linejoin="round" stroke-miterlimit="2.613"/><path d="M113.012 78.097s0 .868-.658.868c-.66 0-.66-.773-.66 0 0 .774-.439-.11-.439.774s-.66.333-.66.333m-.001 0l-.66-.333-.109.774m-.001 0c-.486 0 .109.441-.441.441-.549 0-.658-.552-.658-.552m0 0l-.152-.995m10.927-6.804s.354.283.883.507c.344.146.764.267 1.205.267.281 0 .219-.332.418-.372.6-.121 1.152-.061 1.152-.061m-18.72 1.598s-.535 2.56-.33 2.764" fill="none" stroke="#000" stroke-width=".31" stroke-linecap="round" stroke-linejoin="round" stroke-miterlimit="2.613"/><path d="M74.751 40.411s-.27 2.15.775 3.2c1.044 1.051.879 1.327.879 1.77s-.33 1.106-.33 1.106-.879.995-1.429.995-.77.221-1.1-.111c-.369-.826-1.979-.442-1.979-.442s-.523-.072-.66.267c-.206.513-.549 1.06.77 1.06 1.32 0 .935-.388 1.32 0 .384.387-1.197.319-1.54.663-.466.469-.22 1.216.44 1.216.659 0 2.199-1.327 2.199-1.327 0 1.106 0 1.106.66 1.106s.879-.885.879-.885l.11-.885.66-.995s.88 1.328 1.43-.11c.549-1.438-.22-1.991-.22-1.991s1.003.318 1.43-.11c.426-.429.438-1.659.438-1.659l-1.538-4.091-3.194 1.223z" fill-rule="evenodd" clip-rule="evenodd" fill="#fff" stroke="#000" stroke-width=".31" stroke-linecap="round" stroke-linejoin="round" stroke-miterlimit="2.613"/><path d="M64.751 32s-.223-1.82-.44-2.322c-.264-.612-1.319-1.659-1.648-1.327-.33.332-.66.995-.66 1.658v.664s0 1.326.549 1.326c.55 0-.879-.774-.879 0s-.44 1.217.11 1.77l.55.553s-.88.442-.44.885.11 1.093.55 1.536c.439.442 1.099.233 1.099.233s-.769.442-.769.995c0 .553.165.608.549.995.385.386 1.759.884 1.759.884s-1.154.83-.439 1.548c.715.719 1.1.664 1.43.332.33-.332 1.209-.664 1.209-.664l.77-.442s.11-.221.11.442c0 .664.384 1.05-.11 1.548-.495.498-.22.774-.55 1.106-.329.332-.879 1.105-.879 1.105l-1.1.995s.109-.995-.77-.995c-.88 0-1.539.11-1.539.553s-.408.381-.11.995 1.429.354 1.429.553-.879.774-.879.774-.989.995-.989 1.769.494 1.382.989.884c.495-.497.439-1.105.439-1.105h.55s.88-.553.88-1.106 0 .111.439.553c.44.442 0 .442.44.442.439 0 .99-.775.99-1.327 0-.553.329-1.548.329-1.548v-1.106s-.329 1.548.55 1.548.989-.774.989-.774v-1.879l-.44-1.106.879 1.327.439-.995-.086-.957-.024-.259.549-1.549s-.109.996.441.996c.549 0 .384.277 1.099-.442.989-.995.91-.636 1.401-.636.583 0 2.557-.055 2.557-.055s.879.028.879-.636c0-.663.166.94.88 1.659.714.719 1.154 1.382 1.648 1.88.496.498 1.211.884 1.211.884s.109.222.109.775c0 .552.165.718-.22 1.106-.385.387-.55.884-.55.884s-.44.111-.989.111c-.55 0-.99.552-.99.552l-.329.774s-.44.664.22.664c.659 0 .989-.553.989-.553s-.33-.221-.33.553-.191 1.01.33 1.01c.548 0 .727.315.99.095.361-.301.77-1.105.77-1.105l.329-.885s.11.111.11.885c-.186.774.614.599.439.774-.175.174.77 0 .77 0l-.11-.996.55-.553s-.17-.483-.56-.875c-.389-.391-.589-.844-.319-1.115.27-.271.516-.477.659-.332.464 0 .807-1.069.11-1.77l-.33-.331.33-1.217.33-.553s.43-.922 0-1.105c-.373-.159-.33-.332-.33-.332l-.22.884-.376.507-.504-.838s0-.884-.33-1.216c-.33-.332-.769-1.216-.769-1.216s-.33-.774-.879-.774.77.22 1.319.22c.55 0 1.54-.331 1.54-.884 0-.553.109-1.769.109-1.769l-.77-1.216-.989-.663h-.55l-.11.663-.33-1.105-.549-.664h-.88l.11.774-.77-.774-.33-.773-.99-.221s-.33.221-.33.664v-.442s-.068-1.513.66-1.327c1.277.327 2.061-.25 2.639.332.384.387 1.209 1.105 1.759 1.105s1.429-.221 1.759-.553.66-.932.66-1.327c0-.84-.439-1.216-.439-1.216l-.509-.366-.26-.187s.16.834-.11 1.106c-.388.391-.33 0-.99 0-.659 0-1.562-.48-2.309-.774-.747-.294-2.812 0-2.529 0s-1.184.6-1.428 1.216c-.265.664-.33 1.548-.33 1.991s.439.885.879 1.327c.44.442 1.155.607 1.539.995.385.387 1.21.332 1.539.663.33.332 1.43.553 1.43.553s.55 0 .879.332c.33.331.11.774.11.774s.44.332-.549.332c-.991 0-1.429-.442-1.979-.442s-1.209-.442-1.759-.442c-.55 0-1.869-.11-2.419-.11h-.55c-.55 0-1.1-1.105-1.1-1.105l-.66-.553.55-.553-.11-2.655.66.333s.55.553.55-.664c0-1.216-.165-.829-.55-1.216s-.55-1.438-.55-1.438-.494-.166-.88.221c-.384.387-.549-.221-.549-.221s.109-1.106-.33-1.106c-.44 0-.99-.111-.99.332 0 .442-.11.442-.11.884s-.11.221-.55.221-1.099-.885-1.099-.332c0 .553-.11 1.216-.11 1.216s-.11-.331-.549.111c-.44.442-.44.442-.44 1.105 0 .665 0 .886.549.886.55 0 .771-.553.771-.553s-.385 2.599 0 2.985c.384.387.384-.332.384.387s-.714.719-.714.719-.22 0-.22.885c0 .884-.329.774-.329 1.658s-.056.277.549.884c.604.609.459.447.055.609-.664.265-.935-.276-1.924-.276-.99 0-.99-1.548-.99-1.548l-.439-1.548-.22-.664s.665-.167.88-.553c.245-.442.22-1.327.22-1.327l-.33-.774-.439-.112z" fill-rule="evenodd" clip-rule="evenodd" fill="#fff" stroke="#000" stroke-width=".31" stroke-linecap="round" stroke-linejoin="round" stroke-miterlimit="2.613"/><path d="M69.259 32.333s.904 1.359 2.079-.078c0 0 .17 2.255-.447 2.585-.471.25-.997.162-1.324-.167-.311-.312-.308-2.34-.308-2.34" fill="none" stroke="#000" stroke-width=".31" stroke-linecap="round" stroke-linejoin="round" stroke-miterlimit="2.613"/><path d="M68.599 29.679c.201.06 1.209.309 1.209.774s-.11.774-.11.774l-.439-.774s-.86-.833-.66-.774zM71.961 29.681c-.2.059-1.21.309-1.21.773s.11.774.11.774l.439-.774c.001.001.862-.832.661-.773z" fill-rule="evenodd" clip-rule="evenodd" stroke="#000" stroke-width=".31" stroke-linecap="round" stroke-linejoin="round" stroke-miterlimit="2.613"/><path d="M73.327 35.556s0 .868-.659.868c-.66 0-.66-.774-.66 0s-.439-.111-.439.774c0 .884-.66.332-.66.332m-.001-.001l-.659-.332-.11.774m-.001.001c-.439.442.11.442-.439.442s-.659-.552-.659-.552m0 0l-.153-.996m10.926-6.805s.354.284.883.507c.345.146.763.266 1.207.266.281 0 .217-.331.417-.371.599-.122 1.153-.061 1.153-.061M64.751 32s-.533 2.56-.33 2.765" fill="none" stroke="#000" stroke-width=".31" stroke-linecap="round" stroke-linejoin="round" stroke-miterlimit="2.613"/><path d="M126.096 73.37V25.145H59.214v47.106c0 14.546 13.406 21.456 16.625 23.373 1.784 1.062 17.306 9.573 17.306 9.573s5.188-3.447 15.823-9.201c17.923-9.697 17.128-22.626 17.128-22.626z" fill="none" stroke="#000" stroke-width="1.554" stroke-miterlimit="2.613"/><path d="M75.729 81.404s-.368 2.17.413 2.955c.78.786.918 1.247.918 1.523 0 .278-.184.74-.413.97-.229.23-.138.416-.826.646-.689.231-.873.186-.873.647 0 .462-.504.37-1.147.37-.644 0-1.47-.185-1.47.324 0 .507-.138 1.061.368 1.061.253 0 .568-.052.841-.125.272-.072.469-.559.582-.561.527-.007.527-.007.189.333s-1.474.628-1.474.906 0 .693.459.693 1.24-.093 1.561-.416c.322-.323.643-1.016.643-1.016s-.39.808-.092 1.107c.298.301.918.462.918.093s-.046-1.153-.046-1.385.827-.046.964-.185c.139-.139.505-1.292.276-1.523-.229-.231.712.114 1.01-.186.299-.301.184-.923-.046-1.153-.229-.231.781.092.781-.231 0-.324-.083-1.386-.083-1.386l-.974-2.816-2.479-.645z" fill-rule="evenodd" clip-rule="evenodd" fill="#fff" stroke="#000" stroke-width=".31" stroke-linecap="round" stroke-linejoin="round" stroke-miterlimit="2.613"/><path d="M65.004 74.542s-.223-1.821-.44-2.323c-.264-.612-1.319-1.658-1.649-1.327-.33.332-.66.996-.66 1.659v.663s.388.629.55 1.328c.125.538-.448-.434-.88 0-.227.228-.439 1.216.11 1.769l.549.553s-.879.442-.439.884c.439.443.11 1.094.55 1.536.44.442 1.1.233 1.1.233s-.77.443-.77.995c0 .553.165.608.549.995.385.387 1.553.058 1.553.058s-.948 1.34-.233 2.059c.714.718 1.1.502 1.429.171.33-.332.825-.574.825-.574l1.154-.626s2.514-.315 2.514 1.256c0 .469-1.769 1.553-2.239 1.553-.469 0-1.491-.622-1.928-.561-1.342.184-.469 1.316.611 1.316.289 0-.724.399-.444.968.551 1.125 1.357.257 1.979-.368.804-.808.282 1.578.726 1.653.444.075.973.344 1.203-.268-.116-1.165-.669-2.683.276-2.188 1.003.526 1.698-.095 1.415-2.283-.066-.508 1.248.444 1.248-.378 0-1.433-.61-1.398 2.126-1.398.659 0 1.868-.08 2.189 1.214.303 1.217.709 1.044 1.204 1.753.45.643 1.23.924 1.505 2.493.275 1.57-.551 1.571-.551 2.4 0 1.034.228.986.228.986s-.067 1.44-.641.862c-.624-.627-1.561.143-1.561 1.34 0 .525.349 1.162.689.86.158-.142.437.266.9-.639.408-.796-.626 3.104.981 1.072.348-.44-.171-.645.214-1.829.299-.922 1.011.499 1.165-.299.322-1.663-.655-2.468-.599-2.411.987.993.975-.679.975-1.003 0-.85-1.227-.905-.814-1.592-.267-2.005 1.4 1.617 1.033-1.562-.173-1.5-2.433-.954-2.249-2.479.16-1.329-1.688-2.369-1.106-2.954.191-.193.858.045 1.408.045s1.77.165 1.945-.861c.094-.543.11-1.216.11-1.216l-.77-1.216-.99-.664h-.549l-.11.664-.33-1.106-.55-.663h-.88l.11.773-.769-.773-.33-.774-.99-.221s-.33.221-.33.663v-.442s-.069-1.513.66-1.326c1.278.326 2.061-.25 2.639.332.385.387 1.209 1.106 1.759 1.106s1.429-.222 1.759-.554c.33-.332.659-.933.659-1.327 0-.84-.439-1.217-.439-1.217l-.509-.365-.26-.187s.16.833-.11 1.106c-.389.39-.33 0-.989 0s-1.562-.481-2.309-.775c-.746-.293-2.811 0-2.528 0 .283 0-1.184.601-1.429 1.217-.264.664-.33 1.547-.33 1.99s.439.885.88 1.328c.439.441 1.154.607 1.539.995.385.386 1.209.332 1.539.663.33.332 1.429.552 1.429.552s.55.001.879.333c.33.332.11.773.11.773s.439.332-.55.332-1.429-.442-1.979-.442-1.209-.443-1.759-.443-1.869-.109-2.419-.109h-.549c-.55 0-1.1-1.107-1.1-1.107s-.456.059-.456-.552.347-.554.347-.554l-.11-2.654.66.333s.55.552.55-.664-.165-.83-.55-1.216c-.385-.388-.55-1.438-.55-1.438s-.495-.166-.879.221c-.385.387-.55-.221-.55-.221s.11-1.105-.33-1.105-.99-.111-.99.332-.11.442-.11.885c0 .442-.11.221-.55.221-.44 0-1.1-.885-1.1-.332 0 .553-.11 1.217-.11 1.217s-.109-.332-.549.11-.44.442-.44 1.105 0 .885.55.885c.549 0 .77-.554.77-.554s-.385 2.603 0 2.988c.384.388.384.384.384.384 0 .719-.715.719-.715.719s-.22 0-.22.885c0 .884-.462.784-.33 1.658.215 1.417-.33.773-1.319.773-.99 0-.99-1.104-.99-1.104l-.439-1.549-.22-.663s.665-.166.88-.553c.245-.442.22-1.327.22-1.327l-.33-.774-.439-.107z" fill-rule="evenodd" clip-rule="evenodd" fill="#fff" stroke="#000" stroke-width=".31" stroke-linecap="round" stroke-linejoin="round" stroke-miterlimit="2.613"/><path d="M69.511 74.874s.905 1.36 2.08-.078c0 0 .171 2.256-.447 2.586-.471.25-.997.162-1.324-.166-.311-.315-.309-2.342-.309-2.342" fill="none" stroke="#000" stroke-width=".31" stroke-linecap="round" stroke-linejoin="round" stroke-miterlimit="2.613"/><path d="M68.852 72.22c.2.059 1.209.309 1.209.775 0 .465-.11.774-.11.774l-.44-.774s-.86-.833-.659-.775zM72.214 72.222c-.2.06-1.209.308-1.209.774 0 .465.11.774.11.774l.44-.774c-.001 0 .86-.833.659-.774z" fill-rule="evenodd" clip-rule="evenodd" stroke="#000" stroke-width=".31" stroke-linecap="round" stroke-linejoin="round" stroke-miterlimit="2.613"/><path d="M65.004 74.542s-.534 2.56-.33 2.764m15.392-4.703s.354.283.883.507c.344.146.763.267 1.207.267.281 0 .217-.332.417-.372.6-.121 1.154-.061 1.154-.061M73.58 78.097s0 .868-.66.868c-.659 0-.659-.773-.659 0 0 .774-.44-.11-.44.774s-.659.333-.659.333m-.001 0l-.66-.333-.11.774m0 0c-.486 0 .11.441-.439.441s-.66-.552-.66-.552m0 0l-.153-.995" fill="none" stroke="#000" stroke-width=".31" stroke-linecap="round" stroke-linejoin="round" stroke-miterlimit="2.613"/><path d="M106.402 58.251s-1.104-.574-1.104-1.79c0-1.785.197-1.829.252-1.805l-.125-.079a.894.894 0 0 0-.565-1.584.896.896 0 1 0-.53 1.612v1.856s-.041 1.232-1.047 1.823v.912h.771s.271 1.273.809 1.273.938-1.273.938-1.273h.67l-.069-.945z" fill-rule="evenodd" clip-rule="evenodd"/><path d="M105.551 54.657l.016.01c-.001 0-.006-.006-.016-.01zM114.607 58.251s-1.104-.574-1.104-1.79c0-1.785.197-1.829.254-1.805l-.125-.079a.894.894 0 0 0-.565-1.584.893.893 0 0 0-.528 1.612l-.004.002v1.854s-.039 1.232-1.045 1.823v.912h.771s.273 1.273.809 1.273c.537 0 .936-1.273.936-1.273h.672l-.071-.945z" fill-rule="evenodd" clip-rule="evenodd"/><path d="M113.758 54.657l.016.01c-.001 0-.006-.006-.016-.01zM122.814 58.251s-1.104-.574-1.104-1.79c0-1.785.199-1.829.254-1.805l-.125-.079a.894.894 0 0 0-.565-1.584.895.895 0 0 0-.53 1.612l-.002.002v1.854s-.039 1.232-1.045 1.823v.912h.771s.271 1.273.809 1.273.938-1.273.938-1.273h.67l-.071-.945z" fill-rule="evenodd" clip-rule="evenodd"/><path d="M121.965 54.657l.016.01c-.001 0-.006-.006-.016-.01zM64.956 58.251s-1.104-.574-1.104-1.79c0-1.785.198-1.829.253-1.805l-.126-.079a.892.892 0 0 0-.563-1.584.893.893 0 0 0-.53 1.612l-.002.002v1.854s-.039 1.232-1.047 1.823l.001.912h.772s.272 1.273.809 1.273c.538 0 .937-1.273.937-1.273h.671l-.071-.945z" fill-rule="evenodd" clip-rule="evenodd"/><path d="M64.104 54.657l.016.01s-.006-.006-.016-.01zM73.162 58.251s-1.104-.574-1.104-1.79c0-1.785.197-1.829.253-1.805l-.126-.079a.893.893 0 0 0-.563-1.584.892.892 0 0 0-.889.896c0 .294.143.553.361.716l-.003.002v1.854s-.04 1.232-1.046 1.823v.912h.771s.273 1.273.811 1.273c.537 0 .936-1.273.936-1.273h.671l-.072-.945z" fill-rule="evenodd" clip-rule="evenodd"/><path d="M72.311 54.657l.016.01s-.006-.006-.016-.01zM81.37 58.251s-1.105-.574-1.105-1.79c0-1.785.198-1.829.254-1.805l-.126-.079a.893.893 0 0 0-.564-1.584.892.892 0 0 0-.528 1.612l-.002.002v1.854s-.04 1.232-1.047 1.823v.912h.772s.273 1.273.81 1.273.936-1.273.936-1.273h.671l-.071-.945z" fill-rule="evenodd" clip-rule="evenodd"/><path d="M80.519 54.657l.015.01s-.006-.006-.015-.01zM77.301 64.55s-1.104-.574-1.104-1.789c0-1.786.197-1.829.253-1.805l-.126-.079a.892.892 0 0 0-.563-1.584.893.893 0 0 0-.528 1.613l-.003.001v1.854s-.04 1.232-1.046 1.823v.911h.772s.272 1.273.81 1.273c.536 0 .936-1.273.936-1.273h.671l-.072-.945z" fill-rule="evenodd" clip-rule="evenodd"/><path d="M76.45 60.956l.015.01s-.005-.007-.015-.01zM68.837 64.55s-1.104-.574-1.104-1.789c0-1.786.196-1.829.253-1.805l-.127-.079a.894.894 0 0 0-.563-1.584.893.893 0 0 0-.529 1.613l-.003.001v1.854s-.04 1.232-1.046 1.823v.911h.771s.273 1.273.81 1.273.936-1.273.936-1.273h.672l-.07-.945z" fill-rule="evenodd" clip-rule="evenodd"/><path d="M67.987 60.956l.015.01s-.006-.007-.015-.01zM118.873 64.55s-1.105-.574-1.105-1.789c0-1.786.197-1.829.254-1.805l-.127-.079a.893.893 0 0 0-.563-1.584.893.893 0 0 0-.889.896.9.9 0 0 0 .359.717l-.002.001v1.854s-.039 1.232-1.045 1.823v.911h.771s.273 1.273.809 1.273c.537 0 .936-1.273.936-1.273h.672l-.07-.945z" fill-rule="evenodd" clip-rule="evenodd"/><path d="M118.021 60.956l.016.01s-.006-.007-.016-.01zM110.408 64.55s-1.104-.574-1.104-1.789c0-1.786.197-1.829.254-1.805l-.127-.079a.893.893 0 0 0-.563-1.584.893.893 0 0 0-.53 1.613l-.002.001v1.854s-.041 1.232-1.045 1.823v.911h.77s.273 1.273.811 1.273.936-1.273.936-1.273h.672l-.072-.945z" fill-rule="evenodd" clip-rule="evenodd"/><path d="M109.559 60.956l.016.01c-.001 0-.009-.007-.016-.01zM90.246 47.401s-1.104-.575-1.104-1.789c0-1.786.197-1.83.253-1.806l-.127-.079a.893.893 0 0 0-.563-1.584.896.896 0 1 0-.529 1.613l-.001.001v1.854s-.04 1.231-1.047 1.823v.911h.772s.272 1.274.81 1.274c.536 0 .936-1.274.936-1.274h.671l-.071-.944z" fill-rule="evenodd" clip-rule="evenodd"/><path d="M89.395 43.807l.015.01s-.006-.006-.015-.01zM97.215 47.401s-1.104-.575-1.104-1.789c0-1.786.197-1.83.253-1.806l-.126-.079a.892.892 0 1 0-1.093.029l-.002.001v1.854s-.04 1.231-1.046 1.823v.911h.771s.272 1.274.81 1.274c.536 0 .935-1.274.935-1.274h.672l-.07-.944z" fill-rule="evenodd" clip-rule="evenodd"/><path d="M96.365 43.807l.016.01c-.001 0-.007-.006-.016-.01zM90.246 33.506s-1.104-.574-1.104-1.789c0-1.786.197-1.829.253-1.805l-.127-.079a.893.893 0 0 0-.563-1.585.895.895 0 1 0-.529 1.613l-.001.001v1.854s-.04 1.232-1.047 1.823v.911h.772s.272 1.273.81 1.273c.536 0 .936-1.273.936-1.273h.671l-.071-.944z" fill-rule="evenodd" clip-rule="evenodd"/><path d="M89.395 29.912l.015.01s-.006-.006-.015-.01zM97.215 33.506s-1.104-.574-1.104-1.789c0-1.786.197-1.829.253-1.805l-.126-.079a.894.894 0 0 0-.564-1.585.894.894 0 0 0-.529 1.613l-.002.001v1.854s-.04 1.232-1.046 1.823v.911h.771s.272 1.273.81 1.273c.536 0 .935-1.273.935-1.273h.672l-.07-.944z" fill-rule="evenodd" clip-rule="evenodd"/><path d="M96.365 29.912l.016.01c-.001 0-.007-.006-.016-.01zM90.246 96.598s-1.104-.574-1.104-1.789c0-1.786.197-1.83.253-1.806l-.127-.078a.892.892 0 0 0-.563-1.584.892.892 0 0 0-.889.895.9.9 0 0 0 .36.718h-.001v1.854s-.04 1.232-1.047 1.822v.912h.772s.272 1.273.81 1.273c.536 0 .936-1.273.936-1.273h.671l-.071-.944z" fill-rule="evenodd" clip-rule="evenodd"/><path d="M89.395 93.003l.015.011s-.006-.006-.015-.011zM97.215 96.598s-1.104-.574-1.104-1.789c0-1.786.197-1.83.253-1.806l-.126-.078a.893.893 0 0 0-.564-1.584.893.893 0 0 0-.529 1.613h-.002v1.854s-.04 1.232-1.046 1.822v.912h.771s.272 1.273.81 1.273c.536 0 .935-1.273.935-1.273h.672l-.07-.944zM96.365 93.003l.016.011-.016-.011zM90.246 82.704s-1.104-.574-1.104-1.789c0-1.786.197-1.83.253-1.807l-.127-.077a.893.893 0 0 0-.563-1.585.894.894 0 1 0-.529 1.612l-.001.002v1.854s-.04 1.232-1.047 1.823v.911h.772s.272 1.274.81 1.274c.536 0 .936-1.274.936-1.274h.671l-.071-.944zM89.395 79.107l.015.011-.015-.011zM97.555 82.704s-1.104-.574-1.104-1.789c0-1.786.197-1.83.253-1.807l-.126-.077a.895.895 0 0 0-.563-1.585.894.894 0 1 0-.529 1.612l-.002.002v1.854s-.04 1.232-1.046 1.823l.001.911h.771s.272 1.274.809 1.274.936-1.274.936-1.274h.671l-.071-.944z" fill-rule="evenodd" clip-rule="evenodd"/><path d="M96.704 79.107l.015.011c-.001.001-.006-.005-.015-.011zM93.899 88.618s-1.104-.574-1.104-1.79c0-1.784.198-1.828.253-1.804l-.125-.079a.895.895 0 0 0-.563-1.584.892.892 0 0 0-.89.896.9.9 0 0 0 .36.717l-.002.001v1.853s-.04 1.233-1.047 1.823v.911h.772s.272 1.274.81 1.274c.536 0 .936-1.274.936-1.274h.67l-.07-.944z" fill-rule="evenodd" clip-rule="evenodd"/><path d="M93.048 85.023l.016.009c-.001.001-.007-.005-.016-.009zM93.899 75.014s-1.104-.574-1.104-1.789c0-1.787.198-1.829.253-1.805l-.125-.08a.892.892 0 0 0-.563-1.584c-.493 0-.89.4-.89.895a.9.9 0 0 0 .36.719h-.002v1.854s-.04 1.232-1.047 1.823v.911h.772s.272 1.274.81 1.274c.536 0 .936-1.274.936-1.274h.67l-.07-.944z" fill-rule="evenodd" clip-rule="evenodd"/><path d="M93.048 71.42l.016.009c-.001 0-.007-.006-.016-.009zM93.899 40.339s-1.104-.574-1.104-1.789c0-1.786.198-1.83.253-1.806l-.125-.079a.895.895 0 0 0-.563-1.584.896.896 0 1 0-.53 1.613l-.002.001v1.855s-.04 1.232-1.047 1.822v.912h.772s.272 1.273.81 1.273c.536 0 .936-1.273.936-1.273h.67l-.07-.945z" fill-rule="evenodd" clip-rule="evenodd"/><path d="M93.048 36.745l.016.01a.123.123 0 0 0-.016-.01z" fill-rule="evenodd" clip-rule="evenodd"/><path fill-rule="evenodd" clip-rule="evenodd" stroke="#000" stroke-width=".622" stroke-miterlimit="2.613" d="M100.1 65.336H84.79V53.57h15.31v11.766z" fill="#000000"/><path fill-rule="evenodd" clip-rule="evenodd" fill="#fff" stroke="#000" stroke-width=".622" stroke-miterlimit="2.613" d="M88.962 70.154h-2.116v-4.507h2.116v4.507zM97.799 70.154h-2.116v-4.507h2.116v4.507z"/><path fill-rule="evenodd" clip-rule="evenodd" fill="#fff" stroke="#000" stroke-width=".31" stroke-miterlimit="2.613" d="M88.998 56.119h-1.283v-3.028h1.283v3.028zM93.057 56.119h-1.284v-3.028h1.284v3.028zM97.264 56.119h-1.283v-3.028h1.283v3.028zM86.776 56.665h-1.283v-.993h1.283v.993zM99.35 56.665h-1.284v-.993h1.284v.993zM87.184 65.002h-1.382v-1.29h1.382v1.29zM98.992 65.002h-1.383v-1.29h1.383v1.29z"/><path d="M95.763 59.816c0 1.183-1.459 2.143-3.262 2.143-1.8 0-3.259-.96-3.259-2.143 0-1.184 1.458-2.145 3.259-2.145 1.803 0 3.262.961 3.262 2.145z" fill-rule="evenodd" clip-rule="evenodd" fill="#fff" stroke="#000" stroke-width=".466" stroke-miterlimit="2.613"/><path d="M94.371 59.816c0 .615-.859 1.113-1.919 1.113s-1.919-.498-1.919-1.113c0-.616.858-1.115 1.919-1.115s1.919.499 1.919 1.115z" fill-rule="evenodd" clip-rule="evenodd" fill="#fff" stroke="#000" stroke-width=".466" stroke-miterlimit="2.613"/></svg>